<svg width="103" height="30" viewBox="0 0 103 30" fill="none" xmlns="http://www.w3.org/2000/svg">
  <path d="M35.78 17.04L38.14 16.56C38.1933 17.3467 38.48 17.9667 39 18.42C39.52 18.8733 40.2467 19.1 41.18 19.1C42.1533 19.1 42.9067 18.9333 43.44 18.6C43.9733 18.2533 44.24 17.76 44.24 17.12C44.24 16.6533 44.0933 16.2733 43.8 15.98C43.52 15.6867 43.1467 15.4667 42.68 15.32C42.2267 15.1733 41.72 15.0467 41.16 14.94C40.6133 14.82 40.06 14.68 39.5 14.52C38.94 14.3467 38.4267 14.1267 37.96 13.86C37.5067 13.5933 37.1333 13.1933 36.84 12.66C36.56 12.1267 36.42 11.4733 36.42 10.7C36.42 9.52667 36.88 8.53333 37.8 7.72C38.7333 6.90667 39.9667 6.5 41.5 6.5C43.02 6.5 44.2267 6.89333 45.12 7.68C46.0133 8.45333 46.52 9.47333 46.64 10.74L44.28 11.18C44.2667 10.4467 44.02 9.84667 43.54 9.38C43.06 8.91333 42.38 8.68 41.5 8.68C40.66 8.68 40 8.85333 39.52 9.2C39.0533 9.53333 38.82 10.0133 38.82 10.64C38.82 11.0533 38.96 11.4 39.24 11.68C39.5333 11.9467 39.9133 12.1533 40.38 12.3C40.8467 12.4333 41.36 12.56 41.92 12.68C42.48 12.7867 43.04 12.9333 43.6 13.12C44.16 13.2933 44.6733 13.5267 45.14 13.82C45.6067 14.1 45.98 14.5133 46.26 15.06C46.5533 15.5933 46.7 16.2467 46.7 17.02C46.7 18.3133 46.1867 19.3467 45.16 20.12C44.1333 20.8933 42.7667 21.28 41.06 21.28C39.4067 21.28 38.1467 20.88 37.28 20.08C36.4133 19.2667 35.9133 18.2533 35.78 17.04ZM50.9348 19.64V25.16H48.5548V10.62H50.7548V12.1C51.4882 10.9533 52.6548 10.38 54.2548 10.38C55.7482 10.38 56.9215 10.9 57.7748 11.94C58.6415 12.98 59.0748 14.2733 59.0748 15.82C59.0748 17.3667 58.6415 18.66 57.7748 19.7C56.9215 20.7267 55.7482 21.24 54.2548 21.24C52.7348 21.24 51.6282 20.7067 50.9348 19.64ZM50.8548 15.82C50.8548 16.78 51.1148 17.5733 51.6348 18.2C52.1682 18.8267 52.8815 19.14 53.7748 19.14C54.6548 19.14 55.3615 18.8267 55.8948 18.2C56.4282 17.56 56.6948 16.7667 56.6948 15.82C56.6948 14.8467 56.4282 14.04 55.8948 13.4C55.3615 12.76 54.6548 12.44 53.7748 12.44C52.8815 12.44 52.1682 12.76 51.6348 13.4C51.1148 14.0267 50.8548 14.8333 50.8548 15.82ZM67.7497 17.6L69.8897 18.16C69.5164 19.1067 68.9097 19.86 68.0697 20.42C67.243 20.9667 66.2764 21.24 65.1697 21.24C63.623 21.24 62.3697 20.7267 61.4097 19.7C60.463 18.6733 59.9897 17.3733 59.9897 15.8C59.9897 14.2667 60.4697 12.98 61.4297 11.94C62.3897 10.9 63.6297 10.38 65.1497 10.38C66.6697 10.38 67.8964 10.8933 68.8297 11.92C69.7764 12.9333 70.2497 14.2133 70.2497 15.76L70.2297 16.5H62.3297C62.423 17.3267 62.723 17.9867 63.2297 18.48C63.7364 18.96 64.403 19.2 65.2297 19.2C66.4564 19.2 67.2964 18.6667 67.7497 17.6ZM65.1497 12.32C64.403 12.32 63.783 12.54 63.2897 12.98C62.7964 13.42 62.4897 14.0067 62.3697 14.74H67.8897C67.783 14.0067 67.4897 13.42 67.0097 12.98C66.5297 12.54 65.9097 12.32 65.1497 12.32ZM76.3075 19.14C76.9342 19.14 77.4742 18.9667 77.9275 18.62C78.3808 18.2733 78.6808 17.8133 78.8275 17.24L81.1075 17.8C80.8008 18.8 80.2475 19.6267 79.4475 20.28C78.6608 20.92 77.6208 21.24 76.3275 21.24C74.8208 21.24 73.5808 20.72 72.6075 19.68C71.6342 18.6267 71.1475 17.34 71.1475 15.82C71.1475 14.2867 71.6342 13 72.6075 11.96C73.5808 10.9067 74.8208 10.38 76.3275 10.38C77.6208 10.38 78.6608 10.7067 79.4475 11.36C80.2475 12 80.8008 12.82 81.1075 13.82L78.8275 14.38C78.6808 13.8067 78.3808 13.3467 77.9275 13C77.4742 12.6533 76.9342 12.48 76.3075 12.48C75.4675 12.48 74.7942 12.7933 74.2875 13.42C73.7808 14.0333 73.5275 14.8333 73.5275 15.82C73.5275 16.8067 73.7808 17.6067 74.2875 18.22C74.7942 18.8333 75.4675 19.14 76.3075 19.14ZM83.7556 8.88C83.3156 8.88 82.9556 8.74667 82.6756 8.48C82.3956 8.2 82.2556 7.84667 82.2556 7.42C82.2556 6.98 82.3956 6.62 82.6756 6.34C82.9556 6.06 83.3156 5.92 83.7556 5.92C84.1823 5.92 84.5356 6.06 84.8156 6.34C85.0956 6.62 85.2356 6.98 85.2356 7.42C85.2356 7.84667 85.0956 8.2 84.8156 8.48C84.5356 8.74667 84.1823 8.88 83.7556 8.88ZM82.5556 21V10.62H84.9356V21H82.5556ZM87.6295 10.62V9.52C87.6295 8.34667 87.9295 7.46667 88.5295 6.88C89.1295 6.29333 89.9495 6 90.9895 6L91.7895 6.06V8.16C91.7095 8.13333 91.5629 8.12 91.3495 8.12C90.8695 8.12 90.5229 8.24 90.3095 8.48C90.1095 8.70667 90.0095 9.1 90.0095 9.66V10.62H91.8495V12.52H90.0095V21H87.6295V12.52H85.9695V10.62H87.6295ZM95.8753 20.9L91.6953 10.62H94.2353L97.0553 18.14L99.9153 10.62H102.395L97.7953 21.92C97.2753 23.2 96.6886 24.0933 96.0353 24.6C95.382 25.12 94.5686 25.38 93.5953 25.38L92.9153 25.34V23.22C93.102 23.2333 93.302 23.24 93.5153 23.24C93.9686 23.24 94.362 23.12 94.6953 22.88C95.042 22.64 95.3553 22.1733 95.6353 21.48L95.8753 20.9Z" fill="black" />
  <path d="M15 15V9L20 12V18L15 15Z" fill="#AB9FF4" />
  <path d="M15 15L10 18V12L15 9V15Z" fill="#8D7CF6" />
  <path d="M20 18L15 21L10 18L15 15L20 18Z" fill="#624DE3" />
  <path d="M25 15V9L30 12V18L25 15Z" fill="#624DE3" />
  <path d="M30 18L25 21L20 18L25 15L30 18Z" fill="#AB9FF4" />
  <path d="M10 24L5 27V21L10 18V24Z" fill="#AB9FF4" />
  <path d="M15 27L10 30L5 27L10 24L15 27Z" fill="#624DE3" />
  <path d="M10 12L5 15L0 12L5 9L10 12Z" fill="#AB9FF4" />
  <path d="M5 21V15L0 12V18L5 21Z" fill="#624DE3" />
  <path d="M20 30V24L25 21V27L20 30Z" fill="#624DE3" />
  <path d="M20 30V24L15 21V27L20 30Z" fill="#AB9FF4" />
  <path d="M25 3L20 6L15 3L20 0L25 3Z" fill="#624DE3" />
  <path d="M20 12V6L25 3V9L20 12Z" fill="#AB9FF4" />
  <path d="M10 6V0L15 3V9L10 6Z" fill="#AB9FF4" />
  <path d="M10 6L5 9V3L10 0V6Z" fill="#624DE3" />
</svg>